<?xml version="1.0" standalone="no"?>
<!DOCTYPE svg PUBLIC "-//W3C//DTD SVG 20010904//EN"
 "http://www.w3.org/TR/2001/REC-SVG-20010904/DTD/svg10.dtd">
<svg version="1.0" xmlns="http://www.w3.org/2000/svg"
 width="1024.000000pt" height="1024.000000pt" viewBox="0 0 1024.000000 1024.000000"
 preserveAspectRatio="xMidYMid meet">

<g transform="translate(0.000000,1024.000000) scale(0.100000,-0.100000)"
fill="#000000" stroke="none">
<path d="M2155 6469 c-112 -15 -242 -56 -361 -113 -369 -180 -620 -515 -690
-920 -22 -125 -14 -387 15 -502 59 -235 159 -427 300 -577 l65 -68 -51 -207
c-51 -209 -53 -232 -19 -254 26 -18 70 -2 263 93 136 67 212 99 226 96 12 -3
67 -17 122 -31 553 -146 1155 130 1420 650 53 103 96 232 121 359 24 122 24
349 0 464 -109 516 -476 885 -991 996 -87 19 -326 27 -420 14z m350 -274 c48
-9 123 -27 167 -42 80 -26 229 -108 235 -129 2 -6 -21 -40 -50 -75 -30 -35
-64 -82 -76 -104 -28 -53 -28 -123 0 -159 43 -55 98 -19 120 80 13 56 33 84
49 68 4 -5 12 -29 17 -54 8 -40 12 -45 38 -48 36 -5 55 -19 55 -42 0 -28 -127
-186 -180 -224 -57 -41 -70 -74 -46 -111 14 -21 24 -25 63 -25 37 0 61 9 112
39 98 59 129 58 168 -1 47 -73 69 -82 103 -46 11 12 22 20 24 17 3 -2 6 -27 8
-54 l3 -50 -67 -3 c-65 -3 -68 -2 -108 35 l-42 37 -100 -17 c-55 -10 -117 -26
-138 -37 -93 -48 -160 -172 -160 -299 0 -79 21 -126 69 -158 30 -20 47 -23
136 -23 141 0 149 -6 153 -129 l4 -90 -52 -55 c-141 -149 -385 -265 -597 -283
-72 -6 -73 -6 -73 18 0 17 18 40 60 77 33 29 76 81 96 115 20 34 49 79 65 99
65 81 60 135 -15 162 -25 9 -67 23 -93 32 -31 11 -74 43 -130 95 -61 57 -98
82 -135 95 -57 19 -128 15 -177 -10 -68 -36 -135 -12 -147 52 -12 68 -18 73
-79 66 -64 -8 -82 2 -91 52 -14 74 39 128 118 122 36 -3 45 -9 73 -48 52 -74
95 -64 95 22 0 55 10 78 77 175 55 81 102 133 119 133 7 0 25 5 39 12 21 9 25
16 20 39 -8 35 14 43 65 23 51 -20 80 -7 80 37 0 41 -35 102 -70 123 -21 12
-31 28 -37 58 -10 50 -46 80 -97 80 -47 0 -64 -15 -94 -82 -13 -30 -29 -58
-35 -62 -37 -24 -129 10 -142 51 -18 58 77 144 175 158 46 7 55 12 55 28 0 14
-14 27 -44 42 -51 26 -61 38 -61 74 0 35 -48 58 -86 40 -22 -10 -25 -16 -19
-42 12 -54 -52 -97 -118 -78 -70 19 -58 42 56 107 198 113 425 155 642 117z
m-1090 -799 c-7 -116 3 -158 59 -235 18 -25 45 -68 59 -96 33 -66 57 -87 147
-129 41 -19 113 -57 160 -83 95 -55 95 -54 70 -163 -18 -75 -8 -103 56 -169
57 -58 74 -97 74 -166 0 -71 -9 -88 -42 -81 -79 16 -252 122 -340 209 -128
126 -235 308 -278 472 -31 114 -38 314 -16 423 21 103 33 135 47 126 7 -4 9
-39 4 -108z"/>
<path d="M2126 6127 c-47 -47 -25 -110 45 -132 10 -4 21 -17 24 -31 3 -13 7
-35 10 -48 11 -53 114 -84 164 -50 49 35 67 138 33 204 -26 52 -71 73 -168 78
-78 4 -84 3 -108 -21z"/>
<path d="M4914 5860 c-109 -16 -190 -83 -236 -200 -22 -54 -23 -64 -23 -450 0
-392 0 -395 24 -454 49 -123 141 -186 278 -194 148 -8 252 47 310 166 l28 57
0 435 0 435 -27 51 c-63 120 -192 176 -354 154z m120 -185 c18 -9 41 -30 51
-48 19 -30 20 -53 20 -412 0 -365 -1 -381 -20 -415 -53 -90 -199 -69 -219 31
-3 18 -6 196 -6 396 0 404 2 417 63 447 40 20 71 20 111 1z"/>
<path d="M5697 5860 c-97 -17 -178 -86 -220 -190 -22 -54 -22 -64 -22 -465 0
-404 0 -411 23 -467 25 -62 87 -126 149 -154 53 -25 232 -25 286 -1 55 25 112
81 137 134 27 58 46 207 31 246 l-11 28 -87 -3 -88 -3 -5 -85 c-7 -99 -19
-126 -65 -146 -44 -18 -69 -18 -105 1 -58 30 -59 36 -62 456 -2 354 -1 387 15
417 37 68 133 79 181 21 27 -32 35 -61 39 -149 l2 -55 90 0 90 0 0 100 c0 94
-2 105 -33 168 -48 97 -115 139 -242 150 -30 3 -76 1 -103 -3z"/>
<path d="M7127 5860 c-198 -50 -285 -267 -187 -466 33 -68 84 -123 277 -304
77 -72 93 -93 108 -139 32 -97 4 -173 -72 -200 -85 -30 -156 29 -169 140 l-7
60 -91 -3 -91 -3 1 -70 c1 -135 55 -230 162 -282 51 -25 68 -28 157 -28 83 0
109 4 152 24 119 53 191 185 181 332 -9 127 -64 201 -300 412 -99 89 -136 143
-145 214 -9 79 39 143 107 143 66 0 110 -44 125 -125 4 -22 10 -42 15 -45 4
-3 43 -3 86 0 l79 5 -1 67 c-1 119 -78 228 -182 258 -54 16 -161 21 -205 10z"/>
<path d="M6403 5853 l-163 -3 -6 -25 c-3 -14 -4 -297 -2 -631 4 -505 7 -607
19 -615 8 -5 131 -8 274 -6 l260 2 3 92 c3 111 19 102 -193 106 l-150 2 -3
169 c-2 116 1 173 9 182 9 11 43 14 141 14 l129 0 -3 93 -3 92 -135 5 -135 5
0 165 0 165 170 5 170 5 3 78 c2 50 -1 84 -9 93 -9 11 -36 13 -113 12 -55 -1
-174 -4 -263 -5z"/>
<path d="M8223 5852 c-8 -5 -66 -273 -139 -630 -101 -499 -123 -626 -114 -637
9 -11 35 -15 101 -15 104 0 98 -6 124 130 29 153 13 140 164 140 115 0 130 -2
135 -17 3 -10 14 -65 26 -122 11 -57 25 -110 31 -118 15 -18 172 -18 187 0 10
11 -4 85 -207 1071 -23 109 -45 192 -53 197 -17 11 -239 11 -255 1z m191 -561
c25 -134 43 -248 40 -252 -3 -5 -46 -9 -95 -9 -67 0 -91 3 -95 14 -3 8 13 106
35 219 22 113 43 229 47 258 10 75 15 56 68 -230z"/>
<path d="M8882 5848 c-17 -17 -18 -1248 0 -1266 14 -14 155 -17 176 -4 10 7
12 142 10 643 l-3 634 -85 3 c-58 2 -89 -1 -98 -10z"/>
<path d="M3830 5818 c0 -53 241 -1232 254 -1240 6 -4 59 -8 118 -8 92 0 109 2
117 18 10 18 46 196 166 818 41 214 75 402 75 417 l0 27 -100 0 c-55 0 -100
-1 -100 -2 0 -9 -135 -798 -153 -893 l-13 -70 -78 470 c-43 258 -81 475 -83
482 -4 9 -33 13 -104 13 l-99 0 0 -32z"/>
<path d="M7735 5270 c-35 -14 -66 -57 -72 -97 -7 -52 28 -103 83 -122 37 -13
44 -12 80 5 26 13 45 32 58 58 17 36 18 43 5 80 -23 66 -94 101 -154 76z"/>
</g>
</svg>
