<?xml version="1.0" standalone="no"?>
<!DOCTYPE svg PUBLIC "-//W3C//DTD SVG 20010904//EN"
 "http://www.w3.org/TR/2001/REC-SVG-20010904/DTD/svg10.dtd">
<svg version="1.0" xmlns="http://www.w3.org/2000/svg"
 width="400.000000pt" height="150.000000pt" viewBox="0 0 400.000000 150.000000"
 preserveAspectRatio="xMidYMid meet">

<g transform="translate(0.000000,150.000000) scale(0.100000,-0.100000)"
fill="#000000" stroke="none">
<path d="M770 1287 c-219 -75 -340 -241 -340 -467 0 -132 45 -254 125 -340
l24 -25 -20 -84 c-12 -53 -16 -88 -10 -94 6 -6 43 6 98 32 l89 41 75 -16 c48
-10 96 -14 135 -10 420 42 605 550 308 843 -130 128 -322 176 -484 120z m305
-118 c25 -12 48 -26 51 -31 3 -5 -6 -27 -21 -48 -17 -25 -25 -48 -23 -67 4
-39 29 -36 50 7 16 33 18 34 24 13 3 -13 13 -23 20 -23 27 0 14 -35 -31 -83
-66 -71 -49 -93 42 -56 30 12 34 11 57 -10 13 -13 29 -20 35 -16 7 3 11 -2 11
-14 0 -26 -35 -28 -61 -5 -45 41 -167 -26 -170 -92 -3 -77 11 -96 78 -104 44
-5 48 -7 54 -40 7 -31 4 -39 -27 -71 -20 -20 -59 -48 -87 -62 -55 -26 -154
-49 -162 -37 -2 4 7 18 20 30 38 35 88 118 80 131 -4 6 -22 17 -40 24 -17 8
-52 30 -76 51 -42 35 -45 36 -101 30 -55 -7 -59 -6 -68 18 -6 17 -18 26 -37
28 -39 4 -45 43 -9 60 23 10 29 8 49 -10 30 -29 33 -28 41 9 7 38 55 107 79
115 9 3 17 12 17 20 0 10 9 14 27 12 34 -4 42 22 16 50 -10 10 -23 27 -29 38
-18 32 -51 29 -69 -5 -17 -34 -32 -38 -59 -18 -26 19 -7 52 39 68 40 15 43 24
15 39 -11 6 -20 17 -20 25 0 25 -38 18 -42 -7 -2 -16 -10 -23 -25 -23 -41 0
-29 19 29 49 97 48 226 50 323 5z m-489 -391 c23 -37 44 -55 98 -84 68 -36 68
-36 62 -73 -4 -29 0 -44 25 -81 31 -46 35 -83 8 -88 -8 -1 -43 16 -77 38 -130
87 -198 256 -165 411 7 32 8 31 14 -21 4 -34 17 -73 35 -102z"/>
<path d="M823 1164 c-3 -8 3 -25 14 -37 11 -12 23 -30 26 -40 5 -14 15 -17 39
-15 31 3 33 6 36 43 3 29 -1 43 -14 52 -25 19 -93 17 -101 -3z"/>
<path d="M1500 1046 c0 -13 20 -123 45 -245 25 -121 45 -223 45 -226 0 -3 22
-5 49 -5 42 0 50 3 54 23 12 48 87 450 87 464 0 12 -8 14 -36 10 -20 -3 -38
-8 -40 -9 -2 -2 -15 -76 -30 -163 -14 -88 -29 -166 -33 -172 -4 -7 -20 66 -35
161 l-29 174 -30 6 c-44 9 -47 8 -47 -18z"/>
<path d="M1879 1055 c-52 -28 -61 -68 -57 -255 l3 -170 33 -32 c29 -29 39 -33
88 -33 51 0 58 3 90 37 l34 38 0 175 c0 192 -5 211 -61 241 -35 18 -96 18
-130 -1z m99 -67 c8 -8 12 -61 12 -175 0 -150 -1 -163 -19 -173 -27 -14 -37
-13 -55 6 -13 13 -16 43 -16 173 0 165 4 181 45 181 12 0 26 -5 33 -12z"/>
<path d="M2189 1055 c-49 -27 -59 -67 -59 -240 0 -181 9 -213 67 -240 79 -38
163 7 178 94 8 51 2 61 -41 61 -32 0 -34 -2 -34 -34 0 -52 -34 -79 -70 -56
-20 12 -28 323 -9 346 30 36 79 6 79 -50 0 -23 4 -26 35 -26 34 0 35 1 35 40
0 52 -18 88 -51 106 -35 18 -96 17 -130 -1z"/>
<path d="M2436 1055 c-8 -21 -8 -162 1 -342 l6 -143 104 0 103 0 0 35 0 35
-52 0 c-75 0 -80 6 -76 81 l3 64 50 3 51 3 -4 34 c-4 35 -5 35 -53 35 l-49 0
0 64 0 64 66 7 65 7 -3 31 -3 32 -101 3 c-86 2 -103 0 -108 -13z"/>
<path d="M2734 1036 c-29 -29 -34 -41 -34 -81 0 -60 9 -76 90 -160 73 -75 87
-103 71 -134 -25 -46 -91 -27 -91 26 0 20 -5 23 -40 23 -46 0 -51 -15 -26 -75
42 -101 195 -95 235 8 24 63 9 102 -74 186 -80 83 -97 113 -84 149 13 33 59
27 77 -10 11 -23 20 -28 48 -28 35 0 35 1 29 33 -15 70 -50 97 -127 97 -32 0
-47 -7 -74 -34z"/>
<path d="M3205 1043 c-7 -28 -95 -462 -95 -469 0 -2 18 -4 40 -4 35 0 40 3 46
28 14 66 20 72 74 72 33 0 50 -4 50 -12 0 -7 5 -30 11 -50 9 -35 13 -38 44
-38 28 0 35 4 35 19 0 24 -89 461 -96 472 -3 5 -27 9 -54 9 -44 0 -48 -2 -55
-27z m85 -211 c6 -40 10 -76 6 -79 -7 -7 -55 -7 -63 0 -5 6 2 51 24 162 5 26
7 28 13 10 4 -11 13 -53 20 -93z"/>
<path d="M3467 941 c-4 -71 -4 -183 0 -250 l6 -121 34 0 33 0 0 250 0 250 -33
0 -34 0 -6 -129z"/>
<path d="M3006 824 c-21 -20 -20 -37 2 -57 33 -30 72 -15 72 28 0 42 -44 59
-74 29z"/>
</g>
</svg>
